<?xml version="1.0" encoding="UTF-8"?>
<svg width="125px" height="36px" viewBox="0 0 125 36" version="1.1" xmlns="http://www.w3.org/2000/svg" xmlns:xlink="http://www.w3.org/1999/xlink">
    <!-- Generator: Sketch 50.2 (55047) - http://www.bohemiancoding.com/sketch -->
    <title>logo</title>
    <desc>Created with Sketch.</desc>
    <defs>
        <path d="M47.2363158,20.88 L47.2363158,5.5584 L41.4416491,5.5584 L41.4416491,1.39968 L58.2243158,1.39968 L58.2243158,5.5584 L52.4296491,5.5584 L52.4296491,20.88 L47.2363158,20.88 Z M64.3743158,19.90872 C62.8983084,19.0970359 61.7639864,17.9342476 60.9713158,16.42032 C60.1786452,14.9063924 59.7823158,13.1371301 59.7823158,11.11248 C59.7823158,9.08782988 60.1832007,7.32768748 60.9849825,5.832 C61.7867642,4.33631252 62.9210862,3.18264406 64.3879825,2.37096 C65.8548787,1.55927594 67.581417,1.15344 69.5676491,1.15344 C71.5538813,1.15344 73.2804196,1.55927594 74.7473158,2.37096 C76.214212,3.18264406 77.339423,4.33631252 78.1229825,5.832 C78.9065419,7.32768748 79.2983158,9.08782988 79.2983158,11.11248 C79.2983158,13.1371301 78.9065419,14.9063924 78.1229825,16.42032 C77.339423,17.9342476 76.214212,19.0970359 74.7473158,19.90872 C73.2804196,20.7204041 71.5538813,21.12624 69.5676491,21.12624 C67.581417,21.12624 65.8503232,20.7204041 64.3743158,19.90872 Z M72.9979825,15.65424 C73.8270977,14.6145548 74.2416491,13.1006499 74.2416491,11.11248 C74.2416491,9.14255015 73.8270977,7.64232515 72.9979825,6.61176 C72.1688672,5.58119485 71.0254342,5.06592 69.5676491,5.06592 C68.1098641,5.06592 66.9709866,5.57663489 66.1509825,6.59808 C65.3309784,7.61952511 64.9209825,9.12431006 64.9209825,11.11248 C64.9209825,13.11889 65.3309784,14.6373548 66.1509825,15.66792 C66.9709866,16.6984852 68.1098641,17.21376 69.5676491,17.21376 C71.0254342,17.21376 72.1688672,16.6939252 72.9979825,15.65424 Z M82.3049825,1.39968 L91.5709825,1.39968 C93.7941047,1.39968 95.5160875,1.93319466 96.7369825,3.00024 C97.9578774,4.06728534 98.5683158,5.51279088 98.5683158,7.3368 C98.5683158,9.14256903 97.9487664,10.5835146 96.7096491,11.65968 C95.4705318,12.7358454 93.7576601,13.27392 91.5709825,13.27392 L87.4436491,13.27392 L87.4436491,20.88 L82.3049825,20.88 L82.3049825,1.39968 Z M90.8876491,9.44352 C92.8192143,9.44352 93.7849825,8.75952684 93.7849825,7.39152 C93.7849825,6.69839653 93.5526514,6.17400178 93.0879825,5.81832 C92.6233135,5.46263822 91.8898764,5.2848 90.8876491,5.2848 L87.4436491,5.2848 L87.4436491,9.44352 L90.8876491,9.44352 Z M119.942982,8.89632 C120.890543,9.42528264 121.628535,10.1639953 122.156982,11.11248 C122.68543,12.0609647 122.949649,13.1553538 122.949649,14.39568 C122.949649,15.7454467 122.626208,16.9264749 121.979316,17.9388 C121.332424,18.9511251 120.412211,19.7308773 119.218649,20.27808 C118.025088,20.8252827 116.635657,21.09888 115.050316,21.09888 C113.792976,21.09888 112.544766,20.9073619 111.305649,20.52432 C110.066532,20.1412781 109.073431,19.6396831 108.326316,19.01952 L109.911649,15.38064 C111.588102,16.5480058 113.328307,17.13168 115.132316,17.13168 C116.152765,17.13168 116.90898,16.9264821 117.400982,16.51608 C117.892985,16.1056779 118.138982,15.4718443 118.138982,14.61456 C118.138982,13.7755158 117.879318,13.1325622 117.359982,12.68568 C116.840647,12.2387978 116.11632,12.01536 115.186982,12.01536 C114.676758,12.01536 114.125541,12.1019991 113.533316,12.27528 C112.941091,12.4485609 112.389874,12.6719986 111.879649,12.9456 L109.064316,12.9456 L109.064316,1.39968 L121.910982,1.39968 L121.910982,5.2848 L114.038982,5.2848 L114.038982,8.62272 C114.786097,8.27615827 115.678977,8.10288 116.717649,8.10288 C117.920322,8.10288 118.995422,8.36735736 119.942982,8.89632 Z" id="path-1"></path>
        <filter x="-4.3%" y="-12.5%" width="108.6%" height="135.0%" filterUnits="objectBoundingBox" id="filter-2">
            <feOffset dx="0" dy="1" in="SourceAlpha" result="shadowOffsetOuter1"></feOffset>
            <feGaussianBlur stdDeviation="1" in="shadowOffsetOuter1" result="shadowBlurOuter1"></feGaussianBlur>
            <feColorMatrix values="0 0 0 0 0   0 0 0 0 0   0 0 0 0 0  0 0 0 0.5 0" type="matrix" in="shadowBlurOuter1"></feColorMatrix>
        </filter>
    </defs>
    <g id="Page-1" stroke="none" stroke-width="1" fill="none" fill-rule="evenodd">
        <g id="Desktop-1440" transform="translate(-250.000000, -12.000000)">
            <g id="Group-8" transform="translate(250.000000, 12.000000)">
                <g id="logo">
                    <path d="M29.5811404,0 L4.22587719,0 C1.89108004,0 0,1.892925 0,4.23 L0,25.38 C0,27.717075 1.89108004,29.61 4.22587719,29.61 L12.5001447,29.61 L16.9035088,33.84 L21.129386,29.61 L29.5811404,29.61 C31.9159375,29.61 33.8070175,27.717075 33.8070175,25.38 L33.8070175,4.23 C33.8070175,1.892925 31.9159375,0 29.5811404,0 Z M23.9982028,16.0685147 L22.5795225,17.6063798 L16.9027333,23.76 L11.225944,17.6063798 L9.80726371,16.0685147 C8.23968403,14.3686554 8.23968403,11.6147538 9.80726371,9.91489447 C11.3748434,8.21503518 13.9164733,8.21503518 15.484053,9.91489447 L16.9027333,11.4527595 L18.3214136,9.91489447 C19.8889932,8.21503518 22.4306231,8.21503518 23.9982028,9.91489447 C25.5678505,11.6147538 25.5678505,14.3686554 23.9982028,16.0685147 Z" id="Shape" fill="#D0021B" fill-rule="nonzero"></path>
                    <g id="TOP-5">
                        <use fill="black" fill-opacity="1" filter="url(#filter-2)" xlink:href="#path-1"></use>
                        <use fill="#FFFFFF" fill-rule="evenodd" xlink:href="#path-1"></use>
                    </g>
                    <path d="M42.4038257,33.84 L42.4038257,27.0759375 L44.7004523,27.0759375 C45.3792466,27.0759375 45.8959444,27.203905 46.2505611,27.4598437 C46.6051778,27.7157825 46.7824836,28.089021 46.7824836,28.5795703 C46.7824836,29.39309 46.2421958,29.9689436 45.161604,30.3071484 C46.424831,30.6148844 47.056435,31.2349172 47.056435,32.1672656 C47.056435,32.7065652 46.8715196,33.1201743 46.5016833,33.4081055 C46.1318469,33.6960366 45.6014517,33.84 44.9104818,33.84 L42.4038257,33.84 Z M43.7279245,29.89125 L44.0612322,29.89125 C44.4569419,29.89125 44.7712219,29.793751 45.0040819,29.59875 C45.2369418,29.403749 45.35337,29.1386736 45.35337,28.8035156 C45.35337,28.4927328 45.2597708,28.2817388 45.0725697,28.1705273 C44.8853686,28.0593159 44.5315182,28.0037109 44.0110077,28.0037109 L43.7279245,28.0037109 L43.7279245,29.89125 Z M43.7279245,32.8802344 L44.0292712,32.8802344 C44.6197918,32.8802344 45.02691,32.8170124 45.2506382,32.6905664 C45.4743664,32.5641205 45.5862288,32.333322 45.5862288,31.9981641 C45.5862288,31.6538655 45.4363179,31.3674621 45.1364917,31.1389453 C44.8366656,30.9104285 44.4584641,30.7961719 44.001876,30.7961719 L43.7279245,30.7961719 L43.7279245,32.8802344 Z M52.3756596,33.6708984 C51.7333924,33.8598056 51.1246174,33.9542578 50.5493164,33.9542578 C49.7122383,33.9542578 49.0517174,33.7166039 48.567734,33.2412891 C48.0837507,32.7659742 47.8417626,32.1169963 47.8417626,31.2943359 C47.8417626,30.5173789 48.0632045,29.8920141 48.5060949,29.4182227 C48.9489854,28.9444312 49.5341703,28.7075391 50.2616674,28.7075391 C50.9952522,28.7075391 51.5309742,28.9390992 51.8688494,29.4022266 C52.2067246,29.8653539 52.3756596,30.59812 52.3756596,31.6005469 L49.2663103,31.6005469 C49.3576279,32.5572704 49.8826963,33.035625 50.8415313,33.035625 C51.2950755,33.035625 51.8064465,32.9305089 52.3756596,32.7202734 L52.3756596,33.6708984 Z M49.2480469,30.8373047 L51.0469949,30.8373047 C51.0469949,29.9811285 50.7715243,29.5530469 50.2205746,29.5530469 C49.6604932,29.5530469 49.3363206,29.9811285 49.2480469,30.8373047 Z M53.6404023,33.6800391 L53.6404023,32.6882813 C54.3100648,32.9685952 54.8823133,33.10875 55.3571649,33.10875 C55.9111584,33.10875 56.188151,32.9198456 56.188151,32.5420313 C56.188151,32.29828 55.9598604,32.0850009 55.5032723,31.9021875 L55.0466865,31.719375 C54.5505275,31.5182802 54.1959161,31.3019543 53.9828416,31.0703906 C53.7697672,30.838827 53.6632316,30.5524236 53.6632316,30.2111719 C53.6632316,29.735857 53.8443421,29.3664271 54.2065687,29.1028711 C54.5687952,28.8393151 55.0756004,28.7075391 55.7269994,28.7075391 C56.1348847,28.7075391 56.6203828,28.7669525 57.1835081,28.8857813 L57.1835081,29.8364062 C56.6416902,29.6474991 56.1927187,29.5530469 55.83658,29.5530469 C55.2764986,29.5530469 54.9964621,29.726717 54.9964621,30.0740625 C54.9964621,30.3025793 55.2034456,30.4960539 55.6174188,30.6544922 L56.0100826,30.8053125 C56.5975592,31.0277355 57.0061995,31.253202 57.2360155,31.4817187 C57.4658315,31.7102355 57.5807377,32.004256 57.5807377,32.3637891 C57.5807377,32.836057 57.3851688,33.2191977 56.994025,33.5132227 C56.6028812,33.8072476 56.0937931,33.9542578 55.4667455,33.9542578 C54.8640492,33.9542578 54.2552742,33.8628525 53.6404023,33.6800391 Z M61.6443514,33.8125781 C61.3216958,33.9070317 61.0675322,33.9542578 60.8818531,33.9542578 C59.7099437,33.9542578 59.1239977,33.4058258 59.1239977,32.3089453 L59.1239977,29.6673047 L58.5623972,29.6673047 L58.5623972,28.8217969 L59.1239977,28.8217969 L59.1239977,27.9762891 L60.4754917,27.8208984 L60.4754917,28.8217969 L61.5484683,28.8217969 L61.5484683,29.6673047 L60.4754917,29.6673047 L60.4754917,32.1307031 C60.4754917,32.746175 60.7266114,33.0539062 61.2288583,33.0539062 C61.3445273,33.0539062 61.4830236,33.0325783 61.6443514,32.9899219 L61.6443514,33.8125781 Z M65.931692,33.84 L65.931692,27.0759375 L68.8401436,27.0759375 C69.8872522,27.0759375 70.6893133,27.3539621 71.2463507,27.9100195 C71.8033882,28.466077 72.0819028,29.2681588 72.0819028,30.3162891 C72.0819028,31.4314509 71.7866469,32.2975164 71.1961263,32.9145117 C70.6056057,33.531507 69.7791937,33.84 68.7168654,33.84 L65.931692,33.84 Z M67.3379763,32.8802344 L68.3881236,32.8802344 C69.1277963,32.8802344 69.6794986,32.6753341 70.0432472,32.2655273 C70.4069957,31.8557206 70.5888672,31.2334026 70.5888672,30.3985547 C70.5888672,29.752614 70.4427612,29.2148459 70.1505448,28.7852344 C69.9496461,28.489686 69.707658,28.2855474 69.4245734,28.1728125 C69.1414888,28.0600776 68.7290437,28.0037109 68.1872259,28.0037109 L67.3379763,28.0037109 L67.3379763,32.8802344 Z M75.803077,33.3007031 C75.3525768,33.7364084 74.8701226,33.9542578 74.3557,33.9542578 C73.9173755,33.9542578 73.5612421,33.8201967 73.2872893,33.5520703 C73.0133364,33.283944 72.876362,32.9366037 72.876362,32.5100391 C72.876362,31.955505 73.0978039,31.5281851 73.5406944,31.2280664 C73.9835848,30.9279477 74.6174718,30.7778906 75.4423742,30.7778906 L75.803077,30.7778906 L75.803077,30.3208594 C75.803077,29.7998411 75.5062992,29.5393359 74.9127347,29.5393359 C74.3861365,29.5393359 73.8534584,29.6886313 73.3146844,29.9872266 L73.3146844,29.0548828 C73.9265124,28.8233192 74.5322436,28.7075391 75.1318959,28.7075391 C76.4438257,28.7075391 77.0997807,29.2300729 77.0997807,30.2751562 L77.0997807,32.4963281 C77.0997807,32.889377 77.2261015,33.0858984 77.4787469,33.0858984 C77.5244057,33.0858984 77.5837613,33.0798047 77.6568154,33.0676172 L77.6887764,33.8262891 C77.4026479,33.911602 77.1500062,33.9542578 76.930844,33.9542578 C76.3768504,33.9542578 76.0207171,33.7364084 75.8624332,33.3007031 L75.803077,33.3007031 Z M75.803077,32.5740234 L75.803077,31.5548437 L75.483467,31.5548437 C74.6098618,31.5548437 74.1730657,31.8290598 74.1730657,32.3775 C74.1730657,32.5633603 74.2362261,32.7195111 74.3625488,32.845957 C74.4888715,32.972403 74.6448701,33.035625 74.8305493,33.035625 C75.147117,33.035625 75.4712897,32.8817594 75.803077,32.5740234 Z M81.4282141,33.8125781 C81.1055585,33.9070317 80.851395,33.9542578 80.6657158,33.9542578 C79.4938064,33.9542578 78.9078605,33.4058258 78.9078605,32.3089453 L78.9078605,29.6673047 L78.3462599,29.6673047 L78.3462599,28.8217969 L78.9078605,28.8217969 L78.9078605,27.9762891 L80.2593544,27.8208984 L80.2593544,28.8217969 L81.3323311,28.8217969 L81.3323311,29.6673047 L80.2593544,29.6673047 L80.2593544,32.1307031 C80.2593544,32.746175 80.5104741,33.0539062 81.012721,33.0539062 C81.12839,33.0539062 81.2668863,33.0325783 81.4282141,32.9899219 L81.4282141,33.8125781 Z M82.6336006,33.84 L82.6336006,28.8217969 L83.9850946,28.8217969 L83.9850946,33.84 L82.6336006,33.84 Z M82.6336006,27.9762891 L82.6336006,26.8474219 L83.9850946,26.8474219 L83.9850946,27.9762891 L82.6336006,27.9762891 Z M85.674462,33.84 L85.674462,28.8217969 L87.025956,28.8217969 L87.025956,29.7678516 C87.4673245,29.060973 88.0365291,28.7075391 88.7335869,28.7075391 C89.1810432,28.7075391 89.5341327,28.8492173 89.792866,29.1325781 C90.0515992,29.4159389 90.1809639,29.8028882 90.1809639,30.2934375 L90.1809639,33.84 L88.8294699,33.84 L88.8294699,30.6270703 C88.8294699,30.0573018 88.6407497,29.7724219 88.2633035,29.7724219 C87.8341107,29.7724219 87.4216657,30.0755829 87.025956,30.6819141 L87.025956,33.84 L85.674462,33.84 Z M91.8520679,35.3984766 L91.9616485,34.4158594 C92.518686,34.6717982 93.0498421,34.7997656 93.5551329,34.7997656 C94.0543359,34.7997656 94.4150351,34.6931261 94.6372413,34.4798438 C94.8594475,34.2665614 94.9705489,33.9207446 94.9705489,33.4423828 L94.9705489,32.7568359 C94.6418055,33.4789489 94.0984738,33.84 93.3405376,33.84 C92.7439292,33.84 92.2706066,33.6168186 91.9205558,33.1704492 C91.5705049,32.7240798 91.3954821,32.1200429 91.3954821,31.3583203 C91.3954821,30.5569882 91.591812,29.9148657 91.9844778,29.4319336 C92.3771435,28.9490015 92.8991681,28.7075391 93.5505671,28.7075391 C94.0619457,28.7075391 94.5352683,28.9147245 94.9705489,29.3291016 L95.1120905,28.8217969 L96.3266088,28.8217969 L96.3266088,32.6517188 C96.3266088,33.4164882 96.2801897,33.9679671 96.1873501,34.3061719 C96.0945105,34.6443767 95.9141609,34.9323035 95.6462959,35.1699609 C95.1957957,35.5599629 94.5611478,35.7549609 93.7423331,35.7549609 C93.1609443,35.7549609 92.5308622,35.636134 91.8520679,35.3984766 Z M94.9705489,31.9707422 L94.9705489,30.1197656 C94.6448494,29.7510919 94.3039354,29.5667578 93.9477967,29.5667578 C93.6068776,29.5667578 93.3359728,29.7221469 93.135074,30.0329297 C92.9341753,30.3437125 92.8337274,30.7611302 92.8337274,31.2851953 C92.8337274,32.266294 93.1487684,32.7568359 93.77886,32.7568359 C94.2141406,32.7568359 94.6113663,32.4948073 94.9705489,31.9707422 Z M100.687003,33.7805859 L100.687003,32.6197266 C101.4145,32.9244156 102.036973,33.0767578 102.554439,33.0767578 C102.916666,33.0767578 103.202029,32.9960164 103.410537,32.8345312 C103.619046,32.6730461 103.723299,32.4536733 103.723299,32.1764062 C103.723299,31.9570302 103.657855,31.7719343 103.526967,31.6211133 C103.396078,31.4702922 103.148002,31.2912901 102.782732,31.0841016 L102.330712,30.8327344 C101.724972,30.4914827 101.297307,30.1647086 101.047706,29.8524023 C100.798104,29.5400961 100.673306,29.1752365 100.673306,28.7578125 C100.673306,28.2002316 100.878006,27.7523454 101.287413,27.4141406 C101.696821,27.0759358 102.23787,26.9068359 102.910576,26.9068359 C103.44935,26.9068359 104.056603,26.9845305 104.732353,27.1399219 L104.732353,28.2230859 C104.041383,27.9641003 103.495008,27.8346094 103.09321,27.8346094 C102.78273,27.8346094 102.533894,27.9039251 102.346693,28.0425586 C102.159491,28.1811921 102.065892,28.3632411 102.065892,28.5887109 C102.065892,28.7745712 102.131336,28.9375774 102.262224,29.0777344 C102.393113,29.2178913 102.639667,29.390038 103.001893,29.5941797 L103.485874,29.8638281 C104.137273,30.229455 104.586245,30.5661313 104.832802,30.8738672 C105.07936,31.1816031 105.202637,31.556365 105.202637,31.9981641 C105.202637,32.6258235 104.96978,33.1178888 104.50406,33.474375 C104.038341,33.8308612 103.396083,34.0091016 102.577268,34.0091016 C102.035451,34.0091016 101.405368,33.9329304 100.687003,33.7805859 Z M106.408023,33.84 L106.408023,28.8217969 L107.759517,28.8217969 L107.759517,33.84 L106.408023,33.84 Z M106.408023,27.9762891 L106.408023,26.8474219 L107.759517,26.8474219 L107.759517,27.9762891 L106.408023,27.9762891 Z M112.03316,33.8125781 C111.710505,33.9070317 111.456341,33.9542578 111.270662,33.9542578 C110.098753,33.9542578 109.512807,33.4058258 109.512807,32.3089453 L109.512807,29.6673047 L108.951206,29.6673047 L108.951206,28.8217969 L109.512807,28.8217969 L109.512807,27.9762891 L110.864301,27.8208984 L110.864301,28.8217969 L111.937277,28.8217969 L111.937277,29.6673047 L110.864301,29.6673047 L110.864301,32.1307031 C110.864301,32.746175 111.11542,33.0539062 111.617667,33.0539062 C111.733336,33.0539062 111.871833,33.0325783 112.03316,32.9899219 L112.03316,33.8125781 Z M117.320424,33.6708984 C116.678157,33.8598056 116.069382,33.9542578 115.494081,33.9542578 C114.657003,33.9542578 113.996482,33.7166039 113.512498,33.2412891 C113.028515,32.7659742 112.786527,32.1169963 112.786527,31.2943359 C112.786527,30.5173789 113.007969,29.8920141 113.450859,29.4182227 C113.89375,28.9444312 114.478935,28.7075391 115.206432,28.7075391 C115.940016,28.7075391 116.475738,28.9390992 116.813614,29.4022266 C117.151489,29.8653539 117.320424,30.59812 117.320424,31.6005469 L114.211075,31.6005469 C114.302392,32.5572704 114.827461,33.035625 115.786296,33.035625 C116.23984,33.035625 116.751211,32.9305089 117.320424,32.7202734 L117.320424,33.6708984 Z M114.192811,30.8373047 L115.991759,30.8373047 C115.991759,29.9811285 115.716289,29.5530469 115.165339,29.5530469 C114.605258,29.5530469 114.281085,29.9811285 114.192811,30.8373047 Z M118.585167,33.6800391 L118.585167,32.6882813 C119.254829,32.9685952 119.827078,33.10875 120.301929,33.10875 C120.855923,33.10875 121.132915,32.9198456 121.132915,32.5420313 C121.132915,32.29828 120.904625,32.0850009 120.448037,31.9021875 L119.991451,31.719375 C119.495292,31.5182802 119.14068,31.3019543 118.927606,31.0703906 C118.714531,30.838827 118.607996,30.5524236 118.607996,30.2111719 C118.607996,29.735857 118.789106,29.3664271 119.151333,29.1028711 C119.513559,28.8393151 120.020365,28.7075391 120.671764,28.7075391 C121.079649,28.7075391 121.565147,28.7669525 122.128272,28.8857813 L122.128272,29.8364062 C121.586454,29.6474991 121.137483,29.5530469 120.781344,29.5530469 C120.221263,29.5530469 119.941226,29.726717 119.941226,30.0740625 C119.941226,30.3025793 120.14821,30.4960539 120.562183,30.6544922 L120.954847,30.8053125 C121.542324,31.0277355 121.950964,31.253202 122.18078,31.4817187 C122.410596,31.7102355 122.525502,32.004256 122.525502,32.3637891 C122.525502,32.836057 122.329933,33.2191977 121.938789,33.5132227 C121.547645,33.8072476 121.038557,33.9542578 120.41151,33.9542578 C119.808813,33.9542578 119.200038,33.8628525 118.585167,33.6800391 Z" id="Best-Dating-Sites" fill="#FFFFFF"></path>
                </g>
            </g>
        </g>
    </g>
</svg>